<svg width="362" height="597" viewBox="0 0 362 597" fill="none" xmlns="http://www.w3.org/2000/svg">
<rect width="362" height="597" rx="10" fill="#2B2D36"/>
<path d="M144.457 34.0312L148.582 46.9688H148.746L152.895 34.0312H156.785L150.926 51H146.402L140.52 34.0312H144.457ZM166.02 41.1328V43.8984H158.285V41.1328H166.02ZM167.59 36.9375V34.0312H181.488V36.9375H176.285V51H172.793V36.9375H167.59ZM190.02 45.5859V38.2734H193.488V51H190.16V48.7031H190.02C189.434 50.1797 188.074 51.1641 186.152 51.1641C183.598 51.1641 181.863 49.3594 181.863 46.3828V38.2734H185.332V45.7734C185.332 47.2734 186.199 48.2344 187.559 48.2344C188.824 48.2344 190.02 47.3203 190.02 45.5859ZM199.652 43.6406V51H196.184V38.2734H199.488V40.5H199.629C200.215 39.0234 201.574 38.1094 203.449 38.1094C206.098 38.1094 207.855 39.9141 207.832 42.8906V51H204.387V43.5C204.387 41.9297 203.52 40.9922 202.09 40.9922C200.637 40.9922 199.652 41.9531 199.652 43.6406ZM216.293 51.2578C212.402 51.2578 210.012 48.7266 210.012 44.6953C210.012 40.7578 212.426 38.1094 216.152 38.1094C219.504 38.1094 222.129 40.2188 222.129 44.5547V45.5391H213.434C213.434 47.4609 214.582 48.6562 216.363 48.6562C217.535 48.6562 218.379 48.1406 218.73 47.3672H222.035C221.543 49.7109 219.434 51.2578 216.293 51.2578ZM213.434 43.3594H218.848C218.848 41.8125 217.77 40.7109 216.223 40.7109C214.629 40.7109 213.492 41.8945 213.434 43.3594Z" fill="url(#paint0_linear_20_389)"/>
<path d="M302 163V173L308.667 176.333M318.667 173C318.667 182.205 311.205 189.667 302 189.667C292.795 189.667 285.333 182.205 285.333 173C285.333 163.795 292.795 156.333 302 156.333C311.205 156.333 318.667 163.795 318.667 173Z" stroke="url(#paint1_linear_20_389)" stroke-width="4" stroke-linecap="round" stroke-linejoin="round"/>
<circle cx="302" cy="173" r="12" fill="#2B2D36"/>
<path d="M302 263V273L308.667 276.333M318.667 273C318.667 282.205 311.205 289.667 302 289.667C292.795 289.667 285.333 282.205 285.333 273C285.333 263.795 292.795 256.333 302 256.333C311.205 256.333 318.667 263.795 318.667 273Z" stroke="url(#paint2_linear_20_389)" stroke-width="4" stroke-linecap="round" stroke-linejoin="round"/>
<circle cx="302" cy="273" r="12" fill="#2B2D36"/>
<path d="M302 363V373L308.667 376.333M318.667 373C318.667 382.205 311.205 389.667 302 389.667C292.795 389.667 285.333 382.205 285.333 373C285.333 363.795 292.795 356.333 302 356.333C311.205 356.333 318.667 363.795 318.667 373Z" stroke="url(#paint3_linear_20_389)" stroke-width="4" stroke-linecap="round" stroke-linejoin="round"/>
<circle cx="302" cy="373" r="12" fill="#2B2D36"/>
<path d="M302 463V473L308.667 476.333M318.667 473C318.667 482.205 311.205 489.667 302 489.667C292.795 489.667 285.333 482.205 285.333 473C285.333 463.795 292.795 456.333 302 456.333C311.205 456.333 318.667 463.795 318.667 473Z" stroke="url(#paint4_linear_20_389)" stroke-width="4" stroke-linecap="round" stroke-linejoin="round"/>
<circle cx="302" cy="473" r="12" fill="#2B2D36"/>
<rect x="40" y="144" width="60" height="60" rx="5" fill="#282727"/>
<path d="M63.852 183.111L68.653 184.631C69.558 184.918 70.53 184.911 71.431 184.611L75.947 183.11H77.177L76.964 170.896C76.692 170.647 76.407 170.413 76.113 170.193C76.104 170.187 76.096 170.18 76.087 170.173C75.808 169.966 75.518 169.775 75.22 169.596C75.192 169.579 75.166 169.562 75.138 169.545C74.855 169.378 74.562 169.228 74.264 169.089C74.224 169.07 74.186 169.049 74.145 169.031C73.816 168.883 73.479 168.75 73.134 168.638C73.131 168.638 73.129 168.636 73.126 168.635C73.019 168.603 72.91 168.572 72.801 168.542C72.697 168.512 72.591 168.486 72.485 168.459C72.3 168.413 72.106 168.38 71.915 168.342C71.901 168.347 71.888 168.353 71.874 168.357V169.02C71.874 170.078 71.016 170.936 69.958 170.936C68.9 170.936 68.042 170.078 68.042 169.02V168.34C67.849 168.378 67.653 168.411 67.466 168.458C67.36 168.485 67.254 168.511 67.15 168.541C67.15 168.541 67.149 168.541 67.148 168.541C67.039 168.571 66.931 168.602 66.824 168.634C66.824 168.634 66.823 168.634 66.822 168.634C66.819 168.634 66.816 168.637 66.813 168.638C66.469 168.751 66.132 168.883 65.804 169.031C65.763 169.049 65.724 169.071 65.684 169.09C65.386 169.229 65.094 169.379 64.811 169.545C64.783 169.562 64.756 169.58 64.727 169.596C64.43 169.774 64.141 169.965 63.863 170.171C63.853 170.178 63.843 170.186 63.833 170.193C63.54 170.412 63.257 170.645 62.985 170.893C62.985 170.893 62.984 170.893 62.983 170.894L62.77 183.108H63.852V183.111Z" fill="#1F4EF5"/>
<path d="M79.6231 183.111H75.9461L71.4301 184.612C70.5291 184.911 69.5571 184.918 68.6521 184.632L63.8511 183.112H59.3081C59.2231 183.112 59.1431 183.132 59.0591 183.137C57.0831 183.268 55.5161 184.895 55.5161 186.904C55.5161 189.908 57.9511 192.343 60.9551 192.343H79.0441C82.0481 192.343 84.4831 189.908 84.4831 186.904C84.4831 184.877 82.8881 183.235 80.8871 183.131C80.8211 183.128 80.7581 183.111 80.6911 183.111H79.6241H79.6231Z" fill="#4E5968"/>
<path d="M62.98 170.9L62.77 183.11H56.55V183.1C56.52 183.11 56.49 183.11 56.46 183.11C54.5 183.11 53.35 181.57 53.56 180.01C53.68 179.12 54.12 178.35 54.82 177.26C54.97 177.03 55.36 177.07 55.58 177.27C55.79 177.46 55.77 177.78 55.65 178.02C55.51 178.29 55.34 178.61 55.16 178.98C54.83 179.66 55.36 180.21 55.85 180.21H55.94C56.29 180.21 57.08 179.71 56.55 178.81L56.08 177.99C55.96 177.75 56.01 177.45 56.23 177.27C56.48 177.08 56.84 177.12 57.03 177.37L57.71 178.18C58.36 178.96 58.74 179.54 58.82 180.47H59.19L59.28 178.87C59.44 175.67 60.85 172.85 62.98 170.9Z" fill="#FFCCA8"/>
<path d="M63.97 161.67C63.9633 161.677 63.9566 161.68 63.95 161.68V161.67H63.97Z" fill="#FFCCA8"/>
<path d="M76.03 161.66V161.69C75.67 161.64 75.31 161.55 74.95 161.44C73.28 160.93 71.63 159.79 69.99 158.13C68.66 160.1 67.35 161.24 65.8 161.59C65.22 161.73 64.62 161.76 63.97 161.67C63.9633 161.677 63.9567 161.68 63.95 161.68C63.24 162.05 62.75 162.78 62.75 163.64C62.75 164.6 63.37 165.41 64.22 165.71C64.42 165.78 64.63 165.82 64.85 165.84C65 166.07 65.16 166.29 65.34 166.51C65.96 167.24 66.72 167.77 67.53 168.13C67.7 168.2 67.86 168.27 68.03 168.33H68.04V169.02C68.04 170.08 68.9 170.94 69.96 170.94C70.48 170.94 70.96 170.72 71.31 170.38C71.66 170.03 71.87 169.55 71.87 169.02V168.36C71.89 168.35 71.9 168.35 71.91 168.34C71.92 168.34 71.94 168.33 71.95 168.33C72.12 168.27 72.29 168.21 72.46 168.13C72.99 167.9 73.49 167.59 73.95 167.2C74.42 166.79 74.82 166.34 75.14 165.84C75.33 165.83 75.51 165.8 75.69 165.74C76.6 165.47 77.27 164.64 77.27 163.64C77.27 162.77 76.76 162.02 76.03 161.66ZM68.88 163.52C68.58 163.52 68.34 163.15 68.34 162.7C68.34 162.25 68.58 161.89 68.88 161.89C69.18 161.89 69.42 162.25 69.42 162.7C69.42 163.15 69.18 163.52 68.88 163.52ZM71.03 163.52C70.74 163.52 70.49 163.15 70.49 162.7C70.49 162.25 70.74 161.89 71.03 161.89C71.33 161.89 71.58 162.25 71.58 162.7C71.58 163.15 71.33 163.52 71.03 163.52Z" fill="#FFCCA8"/>
<path d="M83.52 183.11C83.49 183.11 83.46 183.11 83.43 183.1V183.11H77.18L76.96 170.9C79.1 172.84 80.51 175.67 80.67 178.87L80.75 180.47H81.16C81.24 179.54 81.62 178.96 82.27 178.18L82.95 177.37C83.14 177.12 83.5 177.08 83.75 177.27C83.89 177.39 83.97 177.55 83.97 177.72C83.97 177.81 83.95 177.91 83.9 177.99L83.43 178.81C82.91 179.71 83.69 180.21 84.04 180.21H84.13C84.62 180.21 85.15 179.66 84.82 178.98C84.64 178.61 84.47 178.29 84.33 178.02C84.21 177.78 84.19 177.46 84.4 177.27C84.62 177.07 85.01 177.03 85.16 177.26C85.86 178.35 86.3 179.12 86.42 180.01C86.63 181.57 85.48 183.11 83.52 183.11Z" fill="#FFCCA8"/>
<path d="M68.8789 163.519C69.1779 163.519 69.4209 163.154 69.4209 162.704C69.4209 162.254 69.1789 161.889 68.8789 161.889C68.5789 161.889 68.3369 162.254 68.3369 162.704C68.3369 163.154 68.5789 163.519 68.8789 163.519Z" fill="black"/>
<path d="M71.0349 163.519C71.3339 163.519 71.5769 163.154 71.5769 162.704C71.5769 162.254 71.3349 161.889 71.0349 161.889C70.7349 161.889 70.4929 162.254 70.4929 162.704C70.4929 163.154 70.7349 163.519 71.0349 163.519Z" fill="black"/>
<path d="M65.344 166.51C65.16 166.295 65.001 166.068 64.852 165.836C64.631 165.825 64.42 165.782 64.221 165.711L64.109 167.542C64.089 167.863 64.344 168.134 64.665 168.134H67.533C66.715 167.775 65.961 167.237 65.343 166.511L65.344 166.51Z" fill="#333333"/>
<path d="M73.952 167.196C73.491 167.589 72.986 167.899 72.459 168.132H75.334C75.666 168.132 75.925 167.843 75.888 167.513L75.692 165.743C75.514 165.797 75.329 165.832 75.136 165.839C74.818 166.335 74.424 166.794 73.952 167.196Z" fill="#333333"/>
<path d="M65.798 161.594C67.347 161.238 68.66 160.102 69.991 158.132C71.63 159.792 73.281 160.934 74.946 161.439C75.309 161.549 75.672 161.639 76.036 161.686C76.035 161.678 76.031 161.67 76.03 161.662C76.028 161.651 76.024 161.641 76.022 161.63C75.969 161.28 75.889 160.939 75.78 160.613C75.776 160.602 75.771 160.591 75.768 160.579C75.059 158.508 73.272 156.959 71.121 156.551C71.112 156.549 71.103 156.547 71.094 156.545C70.756 156.482 70.408 156.453 70.054 156.449C70.033 156.449 70.012 156.443 69.991 156.443C69.981 156.443 69.971 156.446 69.96 156.446C69.614 156.448 69.275 156.481 68.944 156.54C68.911 156.546 68.879 156.55 68.846 156.556C68.511 156.62 68.185 156.713 67.871 156.83C67.849 156.838 67.827 156.846 67.805 156.854C67.482 156.979 67.17 157.129 66.875 157.305C66.868 157.309 66.861 157.314 66.854 157.318C65.951 157.862 65.197 158.634 64.674 159.559C64.661 159.582 64.648 159.605 64.635 159.628C64.477 159.915 64.344 160.217 64.234 160.531C64.218 160.575 64.204 160.62 64.19 160.665C64.09 160.97 64.014 161.285 63.963 161.61C63.96 161.632 63.951 161.651 63.948 161.673C63.95 161.673 63.953 161.673 63.955 161.673C63.96 161.673 63.964 161.673 63.968 161.673C64.62 161.756 65.224 161.725 65.798 161.593V161.594Z" fill="#333333"/>
<rect x="40" y="244" width="60" height="60" rx="5" fill="#282727"/>
<g clip-path="url(#clip0_20_389)">
<path d="M79.3101 257.48L76.3101 259.3C76.0201 258.57 75.2701 258.21 74.5701 258.51C73.8201 258.83 73.4001 259.77 73.6501 260.61C73.7501 260.97 73.9601 261.24 74.2201 261.43L72.8601 263.09L72.8501 263.1C72.8401 263.09 72.8301 263.08 72.8301 263.08C72.6801 262.95 72.5401 262.82 72.4101 262.68C72.3901 262.66 72.3701 262.63 72.3401 262.6C72.1901 262.43 72.0601 262.24 71.9301 262.05C71.9001 262 71.8701 261.94 71.8301 261.89C71.7101 261.67 71.6001 261.44 71.5201 261.21C71.5001 261.15 71.4801 261.1 71.4701 261.04C71.4101 260.85 71.3601 260.66 71.3301 260.46C71.3101 260.39 71.3001 260.32 71.2901 260.25C71.2601 260.02 71.2501 259.78 71.2601 259.53C71.2701 259.48 71.2701 259.43 71.2801 259.38C71.2901 259.26 71.2901 259.13 71.3201 259.01C71.3301 258.95 71.3501 258.9 71.3601 258.85C71.3901 258.69 71.4401 258.54 71.4901 258.39C71.5301 258.27 71.5601 258.16 71.6101 258.04C71.6801 257.89 71.7601 257.74 71.8401 257.6C71.8901 257.5 71.9401 257.41 72.0001 257.32C72.1101 257.17 72.2301 257.02 72.3501 256.88C72.4101 256.81 72.4601 256.75 72.5301 256.69C72.6601 256.55 72.8101 256.42 72.9601 256.31C73.0401 256.25 73.1101 256.2 73.1801 256.14C73.2501 256.1 73.3101 256.04 73.3801 256C73.4701 255.95 73.5701 255.91 73.6701 255.86C73.7601 255.82 73.8501 255.78 73.9501 255.74C74.1101 255.67 74.2801 255.61 74.4501 255.56C74.5501 255.53 74.6601 255.51 74.7701 255.48C74.9301 255.45 75.0901 255.43 75.2601 255.42C75.3801 255.41 75.5101 255.4 75.6301 255.4C75.7901 255.4 75.9501 255.42 76.1001 255.43C76.1801 255.44 76.2501 255.44 76.3301 255.45C76.3801 255.46 76.4301 255.48 76.4801 255.49C76.6601 255.53 76.8301 255.58 76.9901 255.64C77.1101 255.68 77.2201 255.71 77.3301 255.76C77.5001 255.83 77.6601 255.93 77.8201 256.02C77.9101 256.08 78.0101 256.12 78.0901 256.18C78.2601 256.3 78.4101 256.44 78.5601 256.58C78.6301 256.64 78.7101 256.7 78.7701 256.77C78.9201 256.93 79.0501 257.11 79.1701 257.29C79.2201 257.36 79.2701 257.41 79.3101 257.48Z" fill="#333333"/>
<path d="M67.245 275.882L63.896 279.803L63.801 279.914L66.713 283.571L66.735 283.599L69.704 281.679C70.375 281.245 71.217 281.166 71.957 281.467L75.563 283.062L78.066 279.067L74.243 276.171L67.245 275.882Z" fill="#AEAFAA"/>
<path d="M72.5341 267.525C72.0141 266.494 72.4291 265.238 73.4591 264.718C74.0941 264.397 74.8141 264.434 75.3951 264.749C75.2851 264.629 75.1711 264.512 75.0361 264.408C74.7001 264.152 74.2831 263.956 73.7711 263.865C73.2381 263.77 72.8031 263.751 72.4241 263.783C71.6221 263.85 71.0981 264.168 70.6211 264.629C70.5441 264.703 70.4681 264.778 70.3921 264.859C69.7571 265.536 69.3531 266.397 69.1521 267.304L68.7681 269.035L67.2471 275.883L74.2451 276.172C74.2451 276.172 74.6231 274.453 75.0481 272.507L72.5361 267.526L72.5341 267.525Z" fill="#1F4EF5"/>
<path d="M63.8962 279.803L63.7172 279.97C63.5312 280.144 63.2462 280.149 63.0542 279.983L61.0522 278.245L57.7962 281.596L57.7522 281.606L59.9722 283.534C60.9542 284.387 62.1672 284.811 63.3792 284.811C64.5682 284.811 65.7472 284.385 66.7132 283.571L63.8012 279.914L63.8962 279.803Z" fill="#FFCCA8"/>
<path d="M79.3304 257.51C79.3304 257.5 79.3204 257.49 79.3104 257.48L76.3104 259.3C76.0204 258.57 75.2704 258.21 74.5704 258.51C73.8204 258.83 73.4004 259.77 73.6504 260.61C73.7504 260.97 73.9604 261.24 74.2204 261.43L72.8604 263.09L72.8504 263.1C72.8404 263.09 72.8304 263.08 72.8304 263.08L72.4204 263.78C72.8004 263.75 73.2404 263.77 73.7704 263.86C74.2804 263.96 74.7004 264.15 75.0404 264.41L75.2404 264.06C76.1104 264.13 77.0204 263.95 77.8304 263.47C79.8904 262.24 80.5604 259.57 79.3304 257.51ZM79.0704 260.32C79.0104 260.69 78.7904 260.96 78.5804 260.93C78.3704 260.89 78.2504 260.56 78.3104 260.19C78.3704 259.83 78.5904 259.55 78.8004 259.59C79.0104 259.63 79.1304 259.95 79.0704 260.32Z" fill="#FFCCA8"/>
<path d="M75.9302 283.33C76.2752 283.582 76.4842 283.988 76.4862 284.417L76.5112 287.945H81.2132L81.1882 284.384C81.1752 282.474 80.2462 280.66 78.7032 279.534L78.0662 279.068L75.5632 283.063L75.9292 283.331L75.9302 283.33Z" fill="#FFCCA8"/>
<path d="M70.6203 264.63C70.5403 264.7 70.4703 264.78 70.3903 264.86C69.7603 265.54 69.3503 266.4 69.1503 267.3L68.7703 269.03L66.6903 269.26C66.4203 269.29 66.1803 269.44 66.0303 269.66L65.0103 271.22C65.2503 272.02 65.1003 272.93 64.5303 273.63C63.6203 274.75 61.9703 274.91 60.8603 274C59.7403 273.09 59.5803 271.45 60.4903 270.33C60.6003 270.2 60.7203 270.08 60.8503 269.97C60.8903 269.89 60.9203 269.82 60.9703 269.74L62.5503 267.36C63.3903 266.09 64.7303 265.27 66.2403 265.1L70.6203 264.63Z" fill="#FFCCA8"/>
<path d="M86.6904 270.74C86.6904 271.9 85.9304 272.87 84.8904 273.21L81.2804 275.16C80.6504 275.5 79.9604 275.68 79.2704 275.68C78.8504 275.68 78.4304 275.61 78.0104 275.49C76.9204 275.15 76.0204 274.4 75.4904 273.38L75.0504 272.51L72.5304 267.52C72.0104 266.49 72.4304 265.24 73.4604 264.72C74.0904 264.4 74.8104 264.43 75.4004 264.75C75.7604 264.95 76.0704 265.25 76.2704 265.64L79.2104 271.48C79.2104 271.48 79.2204 271.48 79.2404 271.49C79.2704 271.5 79.2904 271.49 79.3004 271.48L81.5204 270.28C81.7304 269.06 82.8004 268.13 84.0804 268.13C85.5204 268.13 86.6904 269.3 86.6904 270.74Z" fill="#FFCCA8"/>
<path d="M76.5042 287.945V291.998C76.5042 292.233 76.6942 292.423 76.9292 292.423H84.3221C84.5571 292.423 84.7472 292.233 84.7472 291.998V291.462C84.7472 290.666 84.3411 289.925 83.6701 289.497L81.2402 287.945H76.5042Z" fill="#4E5968"/>
<path d="M61.0531 278.245L61.0971 278.199L58.1901 275.374C58.0221 275.21 57.7521 275.214 57.5891 275.383L52.4361 280.685C52.2721 280.853 52.2761 281.123 52.4451 281.286L52.8301 281.66C53.4011 282.215 54.2151 282.44 54.9901 282.257L57.7521 281.606L57.7961 281.596L61.0521 278.245H61.0531Z" fill="#4E5968"/>
<path d="M78.577 260.929C78.787 260.965 79.008 260.694 79.071 260.324C79.134 259.954 79.0151 259.626 78.8051 259.59C78.5951 259.554 78.3741 259.825 78.3111 260.195C78.2481 260.565 78.367 260.894 78.577 260.929Z" fill="black"/>
</g>
<rect x="40" y="444" width="60" height="60" rx="5" fill="#282727"/>
<path d="M72.6881 463.073C72.5771 462.667 72.5981 462.207 72.7931 461.752C73.2561 460.674 74.4781 460.049 75.5241 460.356C76.5021 460.644 76.9681 461.645 76.6481 462.655L81.2941 463.315H81.2961C81.3051 463.251 81.3061 463.187 81.3131 463.123C81.3271 462.991 81.3421 462.858 81.3481 462.726C81.3511 462.66 81.3481 462.595 81.3481 462.53C81.3481 462.391 81.3481 462.252 81.3391 462.113C81.3351 462.054 81.3271 461.996 81.3211 461.937C81.3071 461.794 81.2911 461.652 81.2661 461.511C81.2561 461.453 81.2431 461.396 81.2311 461.339C81.2031 461.201 81.1711 461.064 81.1331 460.929C81.1161 460.867 81.0961 460.807 81.0771 460.746C81.0371 460.62 80.9931 460.495 80.9451 460.372C80.9191 460.305 80.8911 460.24 80.8621 460.174C80.8121 460.06 80.7581 459.948 80.7011 459.837C80.6661 459.769 80.6301 459.701 80.5921 459.634C80.5321 459.529 80.4671 459.426 80.4011 459.324C80.3581 459.259 80.3171 459.193 80.2721 459.13C80.1971 459.025 80.1161 458.925 80.0351 458.825C80.0001 458.782 79.9701 458.737 79.9341 458.695C79.9281 458.688 79.9201 458.683 79.9141 458.676C78.0981 456.604 75.0831 456.143 72.7501 457.423C72.7251 457.437 72.7001 457.449 72.6761 457.463C72.3661 457.639 72.0701 457.848 71.7901 458.086C71.7761 458.098 71.7611 458.104 71.7471 458.116C71.7381 458.124 71.7301 458.134 71.7211 458.142C71.5451 458.297 71.3811 458.461 71.2271 458.633C71.1971 458.667 71.1701 458.702 71.1401 458.737C71.0131 458.886 70.8941 459.04 70.7841 459.2C70.7551 459.242 70.7261 459.283 70.6981 459.325C70.4391 459.721 70.2291 460.146 70.0741 460.59C70.0601 460.629 70.0501 460.669 70.0371 460.708C69.9791 460.887 69.9301 461.069 69.8901 461.253C69.8761 461.318 69.8621 461.384 69.8501 461.45C69.8171 461.628 69.7941 461.808 69.7771 461.989C69.7721 462.042 69.7641 462.094 69.7611 462.146C69.7471 462.381 69.7451 462.618 69.7591 462.855C69.7601 462.877 69.7641 462.899 69.7661 462.922C69.7821 463.135 69.8101 463.349 69.8501 463.562C69.8551 463.587 69.8551 463.613 69.8601 463.638H69.8651L72.6881 463.072V463.073Z" fill="#333333"/>
<path d="M66.296 488.488C64.484 487.802 63.197 486.909 62.265 485.986C61.81 486.038 61.384 486.281 61.149 486.711L59.105 490.467C58.669 491.269 59.249 492.246 60.162 492.246H67.043L65.871 492.231L66.296 488.488Z" fill="#B7B7B7"/>
<path d="M67.428 477.029V473.01H71.969V470.237C71.969 469.253 71.758 468.286 71.373 467.384C71.313 467.243 71.259 467.099 71.19 466.961L69.827 464.261C69.778 464.182 69.689 464.155 69.6 464.159C69.573 464.16 69.545 464.151 69.519 464.162C57.962 468.898 59.896 481.215 59.896 481.215H69.015C68.012 480.08 67.428 478.611 67.428 477.03V477.029Z" fill="#1F4EF5"/>
<path d="M81.091 488.132L80.641 487.213C80.553 487.247 80.452 487.248 80.359 487.204L70.873 482.67C70.15 482.299 69.53 481.798 69.014 481.214H59.895C59.895 481.214 59.952 483.695 62.265 485.986C63.196 486.909 64.483 487.802 66.296 488.488L65.871 492.231L67.043 492.246L78.393 492.394C80.599 492.423 82.06 490.114 81.091 488.132Z" fill="#8A8A8A"/>
<path d="M76.6501 462.66C76.9701 461.65 76.5001 460.64 75.5201 460.36C74.4801 460.05 73.2601 460.67 72.7901 461.75C72.6001 462.21 72.5801 462.67 72.6901 463.07L69.8601 463.64C69.8801 463.72 69.9001 463.8 69.9201 463.88L69.6001 464.16C69.6901 464.15 69.7801 464.18 69.8301 464.26L71.1901 466.96C71.2601 467.1 71.3101 467.24 71.3701 467.38L71.8501 466.97C72.6401 467.62 73.6001 468.07 74.6801 468.24C77.8501 468.72 80.8101 466.54 81.2901 463.37V463.32L76.6501 462.66ZM78.6301 466.05C78.2501 466.38 77.7901 466.47 77.6101 466.25C77.4201 466.04 77.5801 465.6 77.9601 465.27C78.3301 464.94 78.7901 464.85 78.9801 465.07C79.1601 465.28 79.0101 465.72 78.6301 466.05Z" fill="#FFCCA8"/>
<path d="M67.428 477.029C67.428 478.61 68.012 480.079 69.015 481.214C69.531 481.798 70.151 482.299 70.874 482.67L80.36 487.204C80.453 487.248 80.554 487.247 80.642 487.213C80.739 487.176 80.821 487.1 80.857 486.992L81.04 486.442C81.602 484.751 80.87 482.901 79.303 482.053L73.076 478.681L72.933 478.606C72.349 478.297 71.983 477.69 71.983 477.029V473.01H67.428V477.029Z" fill="#FFCCA8"/>
<path d="M78.631 466.049C79.009 465.721 79.165 465.28 78.979 465.066C78.793 464.851 78.335 464.944 77.957 465.272C77.579 465.6 77.423 466.041 77.609 466.255C77.795 466.47 78.253 466.378 78.631 466.049Z" fill="black"/>
<rect x="40" y="344" width="60" height="60" rx="5" fill="#282727"/>
<g clip-path="url(#clip1_20_389)">
<path d="M58.9531 358.403L56.0471 355.921C55.8791 355.777 55.6261 355.797 55.4821 355.965L50.9551 361.265C50.8111 361.433 50.8311 361.686 50.9991 361.83L51.3841 362.159C51.9551 362.646 52.7341 362.809 53.4521 362.59L56.0531 361.798L58.9531 358.403Z" fill="#FFCCA8"/>
<path d="M81.1052 358.403L84.0112 355.921C84.1792 355.777 84.4322 355.797 84.5762 355.965L89.1032 361.265C89.2472 361.433 89.2272 361.686 89.0592 361.83L88.6742 362.159C88.1032 362.646 87.3242 362.809 86.6062 362.59L84.0052 361.798L81.1052 358.403Z" fill="#FFCCA8"/>
<path d="M63.4791 378.552L62.3896 390.53L66.7407 390.926L67.8301 378.948L63.4791 378.552Z" fill="#FFCCA8"/>
<path d="M56.4765 356.236L53.3438 360.023L63.5435 368.461L66.6762 364.673L56.4765 356.236Z" fill="#FFCCA8"/>
<path d="M76.591 378.553L72.24 378.948L73.3294 390.926L77.6804 390.53L76.591 378.553Z" fill="#FFCCA8"/>
<path d="M83.5942 356.236L73.394 364.672L76.5266 368.46L86.7268 360.023L83.5942 356.236Z" fill="#FFCCA8"/>
<path d="M79.4911 366.005L75.9771 362.534L71.8991 365.9C70.9281 366.701 69.5331 366.725 68.5351 365.958L64.0871 362.54L60.5791 366.005L63.3371 368.518C64.0401 369.158 64.3951 370.095 64.2941 371.04L63.4931 378.519C63.4931 378.519 67.1361 380.147 67.4361 382.804H72.6351C72.9351 380.147 76.5781 378.519 76.5781 378.519L75.7771 371.04C75.6761 370.095 76.0311 369.158 76.7341 368.518L79.4921 366.005H79.4911Z" fill="#1F4EF5"/>
<path d="M70.0352 385.529C72.5442 385.529 74.5782 383.495 74.5782 380.986C74.5782 378.477 72.5442 376.443 70.0352 376.443C67.5262 376.443 65.4922 378.477 65.4922 380.986C65.4922 383.495 67.5262 385.529 70.0352 385.529Z" fill="#333333"/>
<path d="M64.077 392.962C65.7599 392.669 66.9598 391.487 66.757 390.322C66.5542 389.157 65.0255 388.45 63.3426 388.743C61.6597 389.036 60.4598 390.218 60.6626 391.383C60.8654 392.548 62.3941 393.255 64.077 392.962Z" fill="#FFCCA8"/>
<path d="M79.4073 391.382C79.6102 390.217 78.4103 389.035 76.7274 388.742C75.0445 388.449 73.5158 389.156 73.313 390.321C73.1102 391.486 74.3101 392.668 75.993 392.961C77.6759 393.254 79.2045 392.547 79.4073 391.382Z" fill="#FFCCA8"/>
</g>
<defs>
<linearGradient id="paint0_linear_20_389" x1="140" y1="42" x2="223" y2="42" gradientUnits="userSpaceOnUse">
<stop stop-color="#83B4F9" stop-opacity="0.7"/>
<stop offset="0.504808" stop-color="#4880EE" stop-opacity="0.8"/>
<stop offset="1" stop-color="#1F4EF5"/>
</linearGradient>
<linearGradient id="paint1_linear_20_389" x1="302" y1="156.333" x2="302" y2="189.667" gradientUnits="userSpaceOnUse">
<stop stop-color="#83B4F9"/>
<stop offset="1" stop-color="#1F4EF5"/>
</linearGradient>
<linearGradient id="paint2_linear_20_389" x1="302" y1="256.333" x2="302" y2="289.667" gradientUnits="userSpaceOnUse">
<stop stop-color="#83B4F9"/>
<stop offset="1" stop-color="#1F4EF5"/>
</linearGradient>
<linearGradient id="paint3_linear_20_389" x1="302" y1="356.333" x2="302" y2="389.667" gradientUnits="userSpaceOnUse">
<stop stop-color="#83B4F9"/>
<stop offset="1" stop-color="#1F4EF5"/>
</linearGradient>
<linearGradient id="paint4_linear_20_389" x1="302" y1="456.333" x2="302" y2="489.667" gradientUnits="userSpaceOnUse">
<stop stop-color="#83B4F9"/>
<stop offset="1" stop-color="#1F4EF5"/>
</linearGradient>
<clipPath id="clip0_20_389">
<rect width="40" height="40" fill="white" transform="translate(50 254)"/>
</clipPath>
<clipPath id="clip1_20_389">
<rect width="40" height="40" fill="white" transform="translate(50 354)"/>
</clipPath>
</defs>
</svg>
