<svg width="60" height="60" viewBox="0 0 60 60" fill="none" xmlns="http://www.w3.org/2000/svg">
<rect width="60" height="60" rx="5" fill="#282727"/>
<g clip-path="url(#clip0_0_1164)">
<path d="M18.953 14.403L16.047 11.921C15.879 11.777 15.626 11.797 15.482 11.965L10.955 17.265C10.811 17.433 10.831 17.686 10.999 17.83L11.384 18.159C11.955 18.646 12.734 18.809 13.452 18.59L16.053 17.798L18.953 14.403Z" fill="#FFCCA8"/>
<path d="M41.105 14.403L44.011 11.921C44.179 11.777 44.432 11.797 44.576 11.965L49.103 17.265C49.247 17.433 49.227 17.686 49.059 17.83L48.674 18.159C48.103 18.646 47.324 18.809 46.606 18.59L44.005 17.798L41.105 14.403Z" fill="#FFCCA8"/>
<path d="M23.4788 34.5523L22.3894 46.5299L26.7404 46.9257L27.8299 34.9481L23.4788 34.5523Z" fill="#FFCCA8"/>
<path d="M16.4762 12.2363L13.3435 16.0235L23.5432 24.4605L26.676 20.6733L16.4762 12.2363Z" fill="#FFCCA8"/>
<path d="M36.591 34.5526L32.24 34.9483L33.3294 46.9259L37.6804 46.5301L36.591 34.5526Z" fill="#FFCCA8"/>
<path d="M43.5941 12.2356L33.3939 20.6721L36.5265 24.4595L46.7266 16.023L43.5941 12.2356Z" fill="#FFCCA8"/>
<path d="M39.491 22.005L35.977 18.534L31.899 21.9C30.928 22.701 29.533 22.725 28.535 21.958L24.087 18.54L20.579 22.005L23.337 24.518C24.04 25.158 24.395 26.095 24.294 27.04L23.493 34.519C23.493 34.519 27.136 36.147 27.436 38.804H32.635C32.935 36.147 36.578 34.519 36.578 34.519L35.777 27.04C35.676 26.095 36.031 25.158 36.734 24.518L39.492 22.005H39.491Z" fill="#1F4EF5"/>
<path d="M30.0349 41.529C32.544 41.529 34.5779 39.495 34.5779 36.986C34.5779 34.477 32.544 32.443 30.0349 32.443C27.5259 32.443 25.4919 34.477 25.4919 36.986C25.4919 39.495 27.5259 41.529 30.0349 41.529Z" fill="#333333"/>
<path d="M24.0768 48.9617C25.7597 48.6687 26.9595 47.4868 26.7567 46.3219C26.5539 45.157 25.0252 44.4501 23.3423 44.7431C21.6594 45.0361 20.4596 46.218 20.6624 47.3829C20.8652 48.5478 22.3939 49.2547 24.0768 48.9617Z" fill="#FFCCA8"/>
<path d="M39.4072 47.3818C39.61 46.2169 38.4102 45.0351 36.7273 44.7421C35.0444 44.4491 33.5157 45.1559 33.3129 46.3208C33.1101 47.4858 34.3099 48.6676 35.9928 48.9606C37.6757 49.2536 39.2044 48.5468 39.4072 47.3818Z" fill="#FFCCA8"/>
</g>
<defs>
<clipPath id="clip0_0_1164">
<rect width="40" height="40" fill="white" transform="translate(10 10)"/>
</clipPath>
</defs>
</svg>
