<svg width="60" height="60" viewBox="0 0 60 60" fill="none" xmlns="http://www.w3.org/2000/svg">
<rect width="60" height="60" rx="5" fill="#282727"/>
<path d="M32.6879 19.073C32.5769 18.667 32.5979 18.207 32.7929 17.752C33.2559 16.674 34.4779 16.049 35.5239 16.356C36.5019 16.644 36.9679 17.645 36.6479 18.655L41.2939 19.315H41.2959C41.3049 19.251 41.3059 19.187 41.3129 19.123C41.3269 18.991 41.3419 18.858 41.3479 18.726C41.3509 18.66 41.3479 18.595 41.3479 18.53C41.3479 18.391 41.3479 18.252 41.3389 18.113C41.3349 18.054 41.3269 17.996 41.3209 17.937C41.3069 17.794 41.2909 17.652 41.2659 17.511C41.2559 17.453 41.2429 17.396 41.2309 17.339C41.2029 17.201 41.1709 17.064 41.1329 16.929C41.1159 16.867 41.0959 16.807 41.0769 16.746C41.0369 16.62 40.9929 16.495 40.9449 16.372C40.9189 16.305 40.8909 16.24 40.8619 16.174C40.8119 16.06 40.7579 15.948 40.7009 15.837C40.6659 15.769 40.6299 15.701 40.5919 15.634C40.5319 15.529 40.4669 15.426 40.4009 15.324C40.3579 15.259 40.3169 15.193 40.2719 15.13C40.1969 15.025 40.1159 14.925 40.0349 14.825C39.9999 14.782 39.9699 14.737 39.9339 14.695C39.9279 14.688 39.9199 14.683 39.9139 14.676C38.0979 12.604 35.0829 12.143 32.7499 13.423C32.7249 13.437 32.6999 13.449 32.6759 13.463C32.3659 13.639 32.0699 13.848 31.7899 14.086C31.7759 14.098 31.7609 14.104 31.7469 14.116C31.7379 14.124 31.7299 14.134 31.7209 14.142C31.5449 14.297 31.3809 14.461 31.2269 14.633C31.1969 14.667 31.1699 14.702 31.1399 14.737C31.0129 14.886 30.8939 15.04 30.7839 15.2C30.7549 15.242 30.7259 15.283 30.6979 15.325C30.4389 15.721 30.2289 16.146 30.0739 16.59C30.0599 16.629 30.0499 16.669 30.0369 16.708C29.9789 16.887 29.9299 17.069 29.8899 17.253C29.8759 17.318 29.8619 17.384 29.8499 17.45C29.8169 17.628 29.7939 17.808 29.7769 17.989C29.7719 18.042 29.7639 18.094 29.7609 18.146C29.7469 18.381 29.7449 18.618 29.7589 18.855C29.7599 18.877 29.7639 18.899 29.7659 18.922C29.7819 19.135 29.8099 19.349 29.8499 19.562C29.8549 19.587 29.8549 19.613 29.8599 19.638H29.8649L32.6879 19.072V19.073Z" fill="#333333"/>
<path d="M26.296 44.488C24.484 43.802 23.197 42.909 22.265 41.986C21.81 42.038 21.384 42.281 21.149 42.711L19.105 46.467C18.669 47.269 19.249 48.246 20.162 48.246H27.043L25.871 48.231L26.296 44.488Z" fill="#B7B7B7"/>
<path d="M27.428 33.029V29.01H31.969V26.237C31.969 25.253 31.758 24.286 31.373 23.384C31.313 23.243 31.259 23.099 31.19 22.961L29.827 20.261C29.778 20.182 29.689 20.155 29.6 20.159C29.573 20.16 29.545 20.151 29.519 20.162C17.962 24.898 19.896 37.215 19.896 37.215H29.015C28.012 36.08 27.428 34.611 27.428 33.03V33.029Z" fill="#1F4EF5"/>
<path d="M41.091 44.132L40.641 43.213C40.553 43.247 40.452 43.248 40.359 43.204L30.873 38.67C30.15 38.299 29.53 37.798 29.014 37.214H19.895C19.895 37.214 19.952 39.695 22.265 41.986C23.196 42.909 24.483 43.802 26.296 44.488L25.871 48.231L27.043 48.246L38.393 48.394C40.599 48.423 42.06 46.114 41.091 44.132Z" fill="#8A8A8A"/>
<path d="M36.65 18.66C36.97 17.65 36.5 16.64 35.52 16.36C34.48 16.05 33.26 16.67 32.79 17.75C32.6 18.21 32.58 18.67 32.69 19.07L29.86 19.64C29.88 19.72 29.9 19.8 29.92 19.88L29.6 20.16C29.69 20.15 29.78 20.18 29.83 20.26L31.19 22.96C31.26 23.1 31.31 23.24 31.37 23.38L31.85 22.97C32.64 23.62 33.6 24.07 34.68 24.24C37.85 24.72 40.81 22.54 41.29 19.37V19.32L36.65 18.66ZM38.63 22.05C38.25 22.38 37.79 22.47 37.61 22.25C37.42 22.04 37.58 21.6 37.96 21.27C38.33 20.94 38.79 20.85 38.98 21.07C39.16 21.28 39.01 21.72 38.63 22.05Z" fill="#FFCCA8"/>
<path d="M27.428 33.0289C27.428 34.6099 28.012 36.0789 29.015 37.2139C29.531 37.7979 30.151 38.2989 30.874 38.6699L40.36 43.2039C40.453 43.2479 40.554 43.247 40.642 43.2129C40.739 43.176 40.821 43.0999 40.857 42.9919L41.04 42.4419C41.602 40.7509 40.87 38.9009 39.303 38.0529L33.076 34.6809L32.933 34.6059C32.349 34.2969 31.983 33.6899 31.983 33.0289V29.0099H27.428V33.0289Z" fill="#FFCCA8"/>
<path d="M38.631 22.049C39.009 21.721 39.165 21.28 38.979 21.066C38.793 20.851 38.335 20.944 37.957 21.272C37.579 21.6 37.423 22.041 37.609 22.255C37.795 22.47 38.253 22.378 38.631 22.049Z" fill="black"/>
</svg>
