<svg width="83" height="18" viewBox="0 0 83 18" fill="none" xmlns="http://www.w3.org/2000/svg">
<path d="M4.45703 0.03125L8.58203 12.9688H8.74609L12.8945 0.03125H16.7852L10.9258 17H6.40234L0.519531 0.03125H4.45703ZM26.0195 7.13281V9.89844H18.2852V7.13281H26.0195ZM27.5898 2.9375V0.03125H41.4883V2.9375H36.2852V17H32.793V2.9375H27.5898ZM50.0195 11.5859V4.27344H53.4883V17H50.1602V14.7031H50.0195C49.4336 16.1797 48.0742 17.1641 46.1523 17.1641C43.5977 17.1641 41.8633 15.3594 41.8633 12.3828V4.27344H45.332V11.7734C45.332 13.2734 46.1992 14.2344 47.5586 14.2344C48.8242 14.2344 50.0195 13.3203 50.0195 11.5859ZM59.6523 9.64062V17H56.1836V4.27344H59.4883V6.5H59.6289C60.2148 5.02344 61.5742 4.10938 63.4492 4.10938C66.0977 4.10938 67.8555 5.91406 67.832 8.89062V17H64.3867V9.5C64.3867 7.92969 63.5195 6.99219 62.0898 6.99219C60.6367 6.99219 59.6523 7.95312 59.6523 9.64062ZM76.293 17.2578C72.4023 17.2578 70.0117 14.7266 70.0117 10.6953C70.0117 6.75781 72.4258 4.10938 76.1523 4.10938C79.5039 4.10938 82.1289 6.21875 82.1289 10.5547V11.5391H73.4336C73.4336 13.4609 74.582 14.6562 76.3633 14.6562C77.5352 14.6562 78.3789 14.1406 78.7305 13.3672H82.0352C81.543 15.7109 79.4336 17.2578 76.293 17.2578ZM73.4336 9.35938H78.8477C78.8477 7.8125 77.7695 6.71094 76.2227 6.71094C74.6289 6.71094 73.4922 7.89453 73.4336 9.35938Z" fill="url(#paint0_linear_282_1026)"/>
<defs>
<linearGradient id="paint0_linear_282_1026" x1="0" y1="8" x2="83" y2="8" gradientUnits="userSpaceOnUse">
<stop stop-color="#83B4F9" stop-opacity="0.7"/>
<stop offset="0.504808" stop-color="#4880EE" stop-opacity="0.8"/>
<stop offset="1" stop-color="#1F4EF5"/>
</linearGradient>
</defs>
</svg>
