<svg width="60" height="60" viewBox="0 0 60 60" fill="none" xmlns="http://www.w3.org/2000/svg">
<rect width="60" height="60" rx="5" fill="#282727"/>
<g clip-path="url(#clip0_0_1134)">
<path d="M39.31 13.48L36.31 15.3C36.02 14.57 35.27 14.21 34.57 14.51C33.82 14.83 33.4 15.77 33.65 16.61C33.75 16.97 33.96 17.24 34.22 17.43L32.86 19.09L32.85 19.1C32.84 19.09 32.83 19.08 32.83 19.08C32.68 18.95 32.54 18.82 32.41 18.68C32.39 18.66 32.37 18.63 32.34 18.6C32.19 18.43 32.06 18.24 31.93 18.05C31.9 18 31.87 17.94 31.83 17.89C31.71 17.67 31.6 17.44 31.52 17.21C31.5 17.15 31.48 17.1 31.47 17.04C31.41 16.85 31.36 16.66 31.33 16.46C31.31 16.39 31.3 16.32 31.29 16.25C31.26 16.02 31.25 15.78 31.26 15.53C31.27 15.48 31.27 15.43 31.28 15.38C31.29 15.26 31.29 15.13 31.32 15.01C31.33 14.95 31.35 14.9 31.36 14.85C31.39 14.69 31.44 14.54 31.49 14.39C31.53 14.27 31.56 14.16 31.61 14.04C31.68 13.89 31.76 13.74 31.84 13.6C31.89 13.5 31.94 13.41 32 13.32C32.11 13.17 32.23 13.02 32.35 12.88C32.41 12.81 32.46 12.75 32.53 12.69C32.66 12.55 32.81 12.42 32.96 12.31C33.04 12.25 33.11 12.2 33.18 12.14C33.25 12.1 33.31 12.04 33.38 12C33.47 11.95 33.57 11.91 33.67 11.86C33.76 11.82 33.85 11.78 33.95 11.74C34.11 11.67 34.28 11.61 34.45 11.56C34.55 11.53 34.66 11.51 34.77 11.48C34.93 11.45 35.09 11.43 35.26 11.42C35.38 11.41 35.51 11.4 35.63 11.4C35.79 11.4 35.95 11.42 36.1 11.43C36.18 11.44 36.25 11.44 36.33 11.45C36.38 11.46 36.43 11.48 36.48 11.49C36.66 11.53 36.83 11.58 36.99 11.64C37.11 11.68 37.22 11.71 37.33 11.76C37.5 11.83 37.66 11.93 37.82 12.02C37.91 12.08 38.01 12.12 38.09 12.18C38.26 12.3 38.41 12.44 38.56 12.58C38.63 12.64 38.71 12.7 38.77 12.77C38.92 12.93 39.05 13.11 39.17 13.29C39.22 13.36 39.27 13.41 39.31 13.48Z" fill="#333333"/>
<path d="M27.245 31.882L23.896 35.803L23.801 35.914L26.713 39.571L26.735 39.599L29.704 37.679C30.375 37.245 31.217 37.166 31.957 37.467L35.563 39.062L38.066 35.067L34.243 32.171L27.245 31.882Z" fill="#AEAFAA"/>
<path d="M32.5339 23.525C32.0139 22.494 32.4289 21.238 33.4589 20.718C34.0939 20.397 34.8139 20.434 35.3949 20.749C35.2849 20.629 35.1709 20.512 35.0359 20.408C34.6999 20.152 34.2829 19.956 33.7709 19.865C33.2379 19.77 32.8029 19.751 32.4239 19.783C31.6219 19.85 31.0979 20.168 30.6209 20.629C30.5439 20.703 30.4679 20.778 30.3919 20.859C29.7569 21.536 29.3529 22.397 29.1519 23.304L28.7679 25.035L27.2469 31.883L34.2449 32.172C34.2449 32.172 34.6229 30.453 35.0479 28.507L32.5359 23.526L32.5339 23.525Z" fill="#1F4EF5"/>
<path d="M23.896 35.803L23.717 35.97C23.531 36.144 23.246 36.149 23.054 35.983L21.052 34.245L17.796 37.596L17.752 37.606L19.972 39.534C20.954 40.387 22.167 40.811 23.379 40.811C24.568 40.811 25.747 40.385 26.713 39.571L23.801 35.914L23.896 35.803Z" fill="#FFCCA8"/>
<path d="M39.3299 13.51C39.3299 13.5 39.3199 13.49 39.3099 13.48L36.3099 15.3C36.0199 14.57 35.2699 14.21 34.5699 14.51C33.8199 14.83 33.3999 15.77 33.6499 16.61C33.7499 16.97 33.9599 17.24 34.2199 17.43L32.8599 19.09L32.8499 19.1C32.8399 19.09 32.8299 19.08 32.8299 19.08L32.4199 19.78C32.7999 19.75 33.2399 19.77 33.7699 19.86C34.2799 19.96 34.6999 20.15 35.0399 20.41L35.2399 20.06C36.1099 20.13 37.0199 19.95 37.8299 19.47C39.8899 18.24 40.5599 15.57 39.3299 13.51ZM39.0699 16.32C39.0099 16.69 38.7899 16.96 38.5799 16.93C38.3699 16.89 38.2499 16.56 38.3099 16.19C38.3699 15.83 38.5899 15.55 38.7999 15.59C39.0099 15.63 39.1299 15.95 39.0699 16.32Z" fill="#FFCCA8"/>
<path d="M35.93 39.33C36.275 39.582 36.484 39.988 36.486 40.417L36.511 43.945H41.213L41.188 40.384C41.175 38.474 40.246 36.66 38.703 35.534L38.066 35.068L35.563 39.063L35.929 39.331L35.93 39.33Z" fill="#FFCCA8"/>
<path d="M30.62 20.63C30.54 20.7 30.4699 20.78 30.3899 20.86C29.7599 21.54 29.3499 22.4 29.1499 23.3L28.7699 25.03L26.6899 25.26C26.42 25.29 26.18 25.44 26.03 25.66L25.0099 27.22C25.2499 28.02 25.0999 28.93 24.5299 29.63C23.6199 30.75 21.9699 30.91 20.8599 30C19.7399 29.09 19.5799 27.45 20.4899 26.33C20.5999 26.2 20.7199 26.08 20.8499 25.97C20.8899 25.89 20.9199 25.82 20.9699 25.74L22.5499 23.36C23.3899 22.09 24.7299 21.27 26.2399 21.1L30.62 20.63Z" fill="#FFCCA8"/>
<path d="M46.6899 26.74C46.6899 27.9 45.9299 28.87 44.8899 29.21L41.2799 31.16C40.6499 31.5 39.9599 31.68 39.2699 31.68C38.8499 31.68 38.4299 31.61 38.0099 31.49C36.9199 31.15 36.0199 30.4 35.4899 29.38L35.0499 28.51L32.5299 23.52C32.0099 22.49 32.4299 21.24 33.4599 20.72C34.0899 20.4 34.8099 20.43 35.3999 20.75C35.7599 20.95 36.0699 21.25 36.2699 21.64L39.2099 27.48C39.2099 27.48 39.2199 27.48 39.2399 27.49C39.2699 27.5 39.2899 27.49 39.2999 27.48L41.5199 26.28C41.7299 25.06 42.7999 24.13 44.0799 24.13C45.5199 24.13 46.6899 25.3 46.6899 26.74Z" fill="#FFCCA8"/>
<path d="M36.504 43.945V47.998C36.504 48.233 36.694 48.423 36.929 48.423H44.322C44.557 48.423 44.747 48.233 44.747 47.998V47.462C44.747 46.666 44.341 45.925 43.67 45.497L41.24 43.945H36.504Z" fill="#4E5968"/>
<path d="M21.053 34.245L21.097 34.199L18.19 31.374C18.022 31.21 17.752 31.214 17.589 31.383L12.436 36.685C12.272 36.853 12.276 37.123 12.445 37.286L12.83 37.66C13.401 38.215 14.215 38.44 14.99 38.257L17.752 37.606L17.796 37.596L21.052 34.245H21.053Z" fill="#4E5968"/>
<path d="M38.5769 16.929C38.7869 16.965 39.0079 16.694 39.0709 16.324C39.1339 15.954 39.0149 15.626 38.8049 15.59C38.5949 15.554 38.3739 15.825 38.3109 16.195C38.2479 16.565 38.3669 16.894 38.5769 16.929Z" fill="black"/>
</g>
<defs>
<clipPath id="clip0_0_1134">
<rect width="40" height="40" fill="white" transform="translate(10 10)"/>
</clipPath>
</defs>
</svg>
