<svg width="50" height="50" viewBox="0 0 50 50" fill="none" xmlns="http://www.w3.org/2000/svg">
<circle cx="25" cy="25" r="25" fill="#D9D9D9"/>
<circle cx="25" cy="25" r="25" fill="#83B4F9" fill-opacity="0.43"/>
<g clip-path="url(#clip0_9_325)">
<path d="M43.644 27.182L36.738 24.754C36.635 24.718 36.522 24.766 36.476 24.865L33.783 31.224C33.783 31.224 31.195 27.628 25.632 27.182L25.647 27.426C25.722 28.686 24.761 29.769 23.501 29.844C22.241 29.919 21.158 28.958 21.083 27.698L21.068 27.443C14.955 28.788 10.713 34.433 10.713 40.887H36.068C38.363 40.887 40.369 39.339 40.952 37.119L43.753 27.383C43.775 27.298 43.729 27.211 43.646 27.182H43.644Z" fill="#482EC4"/>
<path d="M43.699 27.3831L47.138 23.2581C47.813 22.4491 47.754 21.2571 47.004 20.5181C46.21 19.7361 44.934 19.7421 44.148 20.5311L42.98 21.7031C42.541 22.1441 41.902 22.3211 41.299 22.1701L40.388 21.9421C38.898 21.5691 37.365 22.3721 36.824 23.8101L36.476 24.7341L43.699 27.3831Z" fill="#FFCBA7"/>
<path d="M31.08 11.791C29.899 9.08203 26.684 6.20303 22.687 6.02703C18.691 5.85103 17.065 8.53603 17.065 8.53603C10.76 11.759 12.776 25.072 12.776 25.072C12.776 25.072 13.411 26.997 21.033 26.842L20.98 25.98C20.619 25.907 20.267 25.807 19.924 25.684C19.894 25.673 19.864 25.661 19.834 25.65C19.498 25.525 19.17 25.381 18.856 25.211C18.854 25.211 18.853 25.209 18.851 25.208C18.553 25.046 18.268 24.86 17.993 24.66C17.948 24.628 17.903 24.597 17.859 24.564C17.6 24.367 17.353 24.154 17.119 23.927C17.068 23.877 17.019 23.826 16.968 23.774C16.736 23.536 16.513 23.288 16.309 23.022C16.296 23.004 16.284 22.985 16.271 22.967C16.076 22.707 15.899 22.431 15.734 22.147C15.702 22.092 15.669 22.038 15.638 21.982C15.475 21.684 15.329 21.374 15.202 21.054C15.181 21.001 15.162 20.948 15.143 20.895C15.016 20.557 14.904 20.212 14.82 19.854C14.618 18.988 14.772 18.069 15.26 17.326C15.385 17.136 15.5 16.991 15.603 16.87C15.774 16.667 15.901 16.55 15.901 16.55C16.141 16.31 16.354 16.06 16.549 15.804C17.832 14.118 18.197 12.204 18.296 11.39C18.314 11.239 18.499 11.177 18.605 11.286C19.385 12.092 21.803 14.277 25.338 14.589C28.705 14.886 30.403 17.01 30.111 19.624C30.054 19.917 29.976 20.201 29.89 20.482C29.868 20.552 29.846 20.621 29.823 20.691C29.736 20.95 29.64 21.204 29.529 21.45C29.52 21.47 29.513 21.491 29.504 21.511C29.386 21.767 29.252 22.013 29.111 22.254C29.068 22.327 29.024 22.399 28.979 22.47C28.854 22.669 28.721 22.862 28.58 23.048C28.548 23.09 28.52 23.134 28.487 23.175C28.324 23.382 28.148 23.577 27.966 23.766C27.896 23.839 27.824 23.909 27.751 23.979C27.61 24.115 27.463 24.245 27.312 24.371C27.233 24.436 27.156 24.503 27.075 24.565C26.892 24.705 26.702 24.836 26.507 24.959C26.408 25.021 26.308 25.08 26.206 25.138C26.056 25.223 25.903 25.303 25.747 25.378C25.674 25.413 25.606 25.457 25.533 25.49L25.596 26.548C29.62 26.1 31.523 25.295 32.409 24.682C32.893 24.347 33.177 23.789 33.155 23.201C32.972 18.133 31.963 13.809 31.083 11.791H31.08Z" fill="#333333"/>
<path d="M25.745 25.378C25.901 25.303 26.054 25.224 26.204 25.138C26.306 25.08 26.406 25.022 26.505 24.959C26.7 24.835 26.89 24.705 27.073 24.565C27.154 24.503 27.231 24.437 27.31 24.371C27.461 24.246 27.608 24.116 27.749 23.979C27.822 23.909 27.894 23.838 27.964 23.766C28.146 23.577 28.322 23.382 28.485 23.175C28.517 23.134 28.546 23.09 28.578 23.048C28.719 22.862 28.852 22.669 28.977 22.47C29.022 22.398 29.066 22.327 29.109 22.254C29.251 22.013 29.385 21.767 29.502 21.511C29.511 21.491 29.518 21.47 29.527 21.45C29.638 21.204 29.734 20.949 29.821 20.691C29.844 20.622 29.867 20.552 29.888 20.482C29.975 20.2 30.052 19.914 30.109 19.62C30.399 17.01 28.699 14.89 25.339 14.59C21.799 14.28 19.379 12.09 18.599 11.29C18.499 11.18 18.309 11.24 18.299 11.39C18.195 12.206 17.832 14.122 16.547 15.804C16.352 16.059 16.139 16.31 15.899 16.55C15.899 16.55 15.772 16.667 15.601 16.87C15.498 16.992 15.383 17.138 15.259 17.33C14.769 18.07 14.619 18.99 14.819 19.85C14.903 20.21 15.014 20.557 15.141 20.895C15.161 20.948 15.18 21.002 15.2 21.054C15.327 21.374 15.473 21.684 15.636 21.982C15.667 22.038 15.7 22.092 15.732 22.147C15.897 22.432 16.074 22.707 16.269 22.967C16.282 22.985 16.294 23.004 16.307 23.022C16.51 23.288 16.733 23.536 16.966 23.774C17.016 23.825 17.065 23.877 17.117 23.927C17.352 24.154 17.598 24.368 17.857 24.564C17.901 24.597 17.946 24.628 17.991 24.66C18.266 24.859 18.551 25.046 18.849 25.208C18.851 25.208 18.852 25.21 18.854 25.211C19.168 25.381 19.496 25.526 19.832 25.65C19.862 25.661 19.892 25.673 19.922 25.684C20.265 25.806 20.616 25.907 20.978 25.98L21.031 26.842L21.068 27.44L21.078 27.7C21.158 28.96 22.238 29.92 23.498 29.84C24.758 29.77 25.718 28.69 25.648 27.43L25.628 27.18L25.591 26.548L25.528 25.49C25.602 25.457 25.67 25.413 25.742 25.378H25.745Z" fill="#FFCBA7"/>
<path d="M20.1168 18.8375C20.5976 18.8088 20.9594 18.3181 20.9251 17.7415C20.8907 17.1648 20.4732 16.7205 19.9924 16.7492C19.5117 16.7778 19.1498 17.2685 19.1842 17.8452C19.2185 18.4218 19.6361 18.8661 20.1168 18.8375Z" fill="black"/>
<path d="M24.7134 18.5637C25.1941 18.535 25.556 18.0443 25.5216 17.4677C25.4873 16.891 25.0697 16.4467 24.589 16.4754C24.1082 16.504 23.7464 16.9947 23.7807 17.5714C23.8151 18.148 24.2326 18.5923 24.7134 18.5637Z" fill="black"/>
<path d="M23.723 22.207C23.916 22.195 24.064 22.373 24.024 22.562C23.896 23.163 23.381 23.63 22.737 23.668C22.093 23.706 21.526 23.304 21.328 22.722C21.266 22.539 21.392 22.345 21.585 22.334L23.723 22.207Z" fill="#5C2F17"/>
</g>
<defs>
<clipPath id="clip0_9_325">
<rect width="40" height="40" fill="white" transform="translate(9 4)"/>
</clipPath>
</defs>
</svg>
