<svg width="60" height="60" viewBox="0 0 60 60" fill="none" xmlns="http://www.w3.org/2000/svg">
<rect width="60" height="60" rx="5" fill="#282727"/>
<path d="M23.852 39.111L28.653 40.631C29.558 40.918 30.53 40.911 31.431 40.611L35.947 39.11H37.177L36.964 26.896C36.692 26.647 36.407 26.413 36.113 26.193C36.104 26.187 36.096 26.18 36.087 26.173C35.808 25.966 35.518 25.775 35.22 25.596C35.192 25.579 35.166 25.562 35.138 25.545C34.855 25.378 34.562 25.228 34.264 25.089C34.224 25.07 34.186 25.049 34.145 25.031C33.816 24.883 33.479 24.75 33.134 24.638C33.131 24.638 33.129 24.636 33.126 24.635C33.019 24.603 32.91 24.572 32.801 24.542C32.697 24.512 32.591 24.486 32.485 24.459C32.3 24.413 32.106 24.38 31.915 24.342C31.901 24.347 31.888 24.353 31.874 24.357V25.02C31.874 26.078 31.016 26.936 29.958 26.936C28.9 26.936 28.042 26.078 28.042 25.02V24.34C27.849 24.378 27.653 24.411 27.466 24.458C27.36 24.485 27.254 24.511 27.15 24.541C27.15 24.541 27.149 24.541 27.148 24.541C27.039 24.571 26.931 24.602 26.824 24.634C26.824 24.634 26.823 24.634 26.822 24.634C26.819 24.634 26.816 24.637 26.813 24.638C26.469 24.751 26.132 24.883 25.804 25.031C25.763 25.049 25.724 25.071 25.684 25.09C25.386 25.229 25.094 25.379 24.811 25.545C24.783 25.562 24.756 25.58 24.727 25.596C24.43 25.774 24.141 25.965 23.863 26.171C23.853 26.178 23.843 26.186 23.833 26.193C23.54 26.412 23.257 26.645 22.985 26.893C22.985 26.893 22.984 26.893 22.983 26.894L22.77 39.108H23.852V39.111Z" fill="#1F4EF5"/>
<path d="M39.623 39.111H35.946L31.43 40.612C30.529 40.911 29.557 40.918 28.652 40.632L23.851 39.112H19.308C19.223 39.112 19.143 39.132 19.059 39.137C17.083 39.268 15.516 40.895 15.516 42.904C15.516 45.908 17.951 48.343 20.955 48.343H39.044C42.048 48.343 44.483 45.908 44.483 42.904C44.483 40.877 42.888 39.235 40.887 39.131C40.821 39.128 40.758 39.111 40.691 39.111H39.624H39.623Z" fill="#4E5968"/>
<path d="M22.98 26.9L22.77 39.11H16.55V39.1C16.52 39.11 16.49 39.11 16.46 39.11C14.5 39.11 13.35 37.57 13.56 36.01C13.68 35.12 14.12 34.35 14.82 33.26C14.97 33.03 15.36 33.07 15.58 33.27C15.79 33.46 15.77 33.78 15.65 34.02C15.51 34.29 15.34 34.61 15.16 34.98C14.83 35.66 15.36 36.21 15.85 36.21H15.94C16.29 36.21 17.08 35.71 16.55 34.81L16.08 33.99C15.96 33.75 16.01 33.45 16.23 33.27C16.48 33.08 16.84 33.12 17.03 33.37L17.71 34.18C18.36 34.96 18.74 35.54 18.82 36.47H19.19L19.28 34.87C19.44 31.67 20.85 28.85 22.98 26.9Z" fill="#FFCCA8"/>
<path d="M23.97 17.67C23.9633 17.6767 23.9566 17.68 23.95 17.68V17.67H23.97Z" fill="#FFCCA8"/>
<path d="M36.03 17.66V17.69C35.67 17.64 35.31 17.55 34.95 17.44C33.28 16.93 31.63 15.79 29.99 14.13C28.66 16.1 27.35 17.24 25.8 17.59C25.22 17.73 24.62 17.76 23.97 17.67C23.9633 17.6767 23.9567 17.68 23.95 17.68C23.24 18.05 22.75 18.78 22.75 19.64C22.75 20.6 23.37 21.41 24.22 21.71C24.42 21.78 24.63 21.82 24.85 21.84C25 22.07 25.16 22.29 25.34 22.51C25.96 23.24 26.72 23.77 27.53 24.13C27.7 24.2 27.86 24.27 28.03 24.33H28.04V25.02C28.04 26.08 28.9 26.94 29.96 26.94C30.48 26.94 30.96 26.72 31.31 26.38C31.66 26.03 31.87 25.55 31.87 25.02V24.36C31.89 24.35 31.9 24.35 31.91 24.34C31.92 24.34 31.94 24.33 31.95 24.33C32.12 24.27 32.29 24.21 32.46 24.13C32.99 23.9 33.49 23.59 33.95 23.2C34.42 22.79 34.82 22.34 35.14 21.84C35.33 21.83 35.51 21.8 35.69 21.74C36.6 21.47 37.27 20.64 37.27 19.64C37.27 18.77 36.76 18.02 36.03 17.66ZM28.88 19.52C28.58 19.52 28.34 19.15 28.34 18.7C28.34 18.25 28.58 17.89 28.88 17.89C29.18 17.89 29.42 18.25 29.42 18.7C29.42 19.15 29.18 19.52 28.88 19.52ZM31.03 19.52C30.74 19.52 30.49 19.15 30.49 18.7C30.49 18.25 30.74 17.89 31.03 17.89C31.33 17.89 31.58 18.25 31.58 18.7C31.58 19.15 31.33 19.52 31.03 19.52Z" fill="#FFCCA8"/>
<path d="M43.52 39.11C43.49 39.11 43.46 39.11 43.43 39.1V39.11H37.18L36.96 26.9C39.1 28.84 40.51 31.67 40.67 34.87L40.75 36.47H41.16C41.24 35.54 41.62 34.96 42.27 34.18L42.95 33.37C43.14 33.12 43.5 33.08 43.75 33.27C43.89 33.39 43.97 33.55 43.97 33.72C43.97 33.81 43.95 33.91 43.9 33.99L43.43 34.81C42.91 35.71 43.69 36.21 44.04 36.21H44.13C44.62 36.21 45.15 35.66 44.82 34.98C44.64 34.61 44.47 34.29 44.33 34.02C44.21 33.78 44.19 33.46 44.4 33.27C44.62 33.07 45.01 33.03 45.16 33.26C45.86 34.35 46.3 35.12 46.42 36.01C46.63 37.57 45.48 39.11 43.52 39.11Z" fill="#FFCCA8"/>
<path d="M28.879 19.519C29.178 19.519 29.421 19.154 29.421 18.704C29.421 18.254 29.179 17.889 28.879 17.889C28.579 17.889 28.337 18.254 28.337 18.704C28.337 19.154 28.579 19.519 28.879 19.519Z" fill="black"/>
<path d="M31.035 19.519C31.334 19.519 31.577 19.154 31.577 18.704C31.577 18.254 31.335 17.889 31.035 17.889C30.735 17.889 30.493 18.254 30.493 18.704C30.493 19.154 30.735 19.519 31.035 19.519Z" fill="black"/>
<path d="M25.344 22.51C25.16 22.295 25.001 22.068 24.852 21.836C24.631 21.825 24.42 21.782 24.221 21.711L24.109 23.542C24.089 23.863 24.344 24.134 24.665 24.134H27.533C26.715 23.775 25.961 23.237 25.343 22.511L25.344 22.51Z" fill="#333333"/>
<path d="M33.952 23.196C33.491 23.589 32.986 23.899 32.459 24.132H35.334C35.666 24.132 35.925 23.843 35.888 23.513L35.692 21.743C35.514 21.797 35.329 21.832 35.136 21.839C34.818 22.335 34.424 22.794 33.952 23.196Z" fill="#333333"/>
<path d="M25.798 17.594C27.347 17.238 28.66 16.102 29.991 14.132C31.63 15.792 33.281 16.934 34.946 17.439C35.309 17.549 35.672 17.639 36.036 17.686C36.035 17.678 36.031 17.67 36.03 17.662C36.028 17.651 36.024 17.641 36.022 17.63C35.969 17.28 35.889 16.939 35.78 16.613C35.776 16.602 35.771 16.591 35.768 16.579C35.059 14.508 33.272 12.959 31.121 12.551C31.112 12.549 31.103 12.547 31.094 12.545C30.756 12.482 30.408 12.453 30.054 12.449C30.033 12.449 30.012 12.443 29.991 12.443C29.981 12.443 29.971 12.446 29.96 12.446C29.614 12.448 29.275 12.481 28.944 12.54C28.911 12.546 28.879 12.55 28.846 12.556C28.511 12.62 28.185 12.713 27.871 12.83C27.849 12.838 27.827 12.846 27.805 12.854C27.482 12.979 27.17 13.129 26.875 13.305C26.868 13.309 26.861 13.314 26.854 13.318C25.951 13.862 25.197 14.634 24.674 15.559C24.661 15.582 24.648 15.605 24.635 15.628C24.477 15.915 24.344 16.217 24.234 16.531C24.218 16.575 24.204 16.62 24.19 16.665C24.09 16.97 24.014 17.285 23.963 17.61C23.96 17.632 23.951 17.651 23.948 17.673C23.95 17.673 23.953 17.673 23.955 17.673C23.96 17.673 23.964 17.673 23.968 17.673C24.62 17.756 25.224 17.725 25.798 17.593V17.594Z" fill="#333333"/>
</svg>
